ffmpeg started on 2025-06-06 at 15:53:55
Report written to "D:\Convert\FFMetrics\reports\ssim_report-6.txt"
Log level: 32
Command line:
ffmpeg -hide_banner -nostdin -i "G:\\\xc0\xed\xe8\xec\xe5\\\xce\xed\xe3\xee\xe8\xed\xe3\xe8\\!_36_\xce\xf1\xe5\xed\xfc_2024\\DreamCast\\\xcf\xe5\xf0\xe5\xf0\xee\xe6\xe4\xe5\xed\xe8\xe5 \xe2 \xe0\xf0\xe8\xf1\xf2\xee\xea\xf0\xe0\xf2\xe0 \xf1\xee \xf1\xef\xee\xf1\xee\xe1\xed\xee\xf1\xf2\xfc\xfe \xe0\xed\xe0\xeb\xe8\xe7\xe0\\\xd2\xc2-1\\[DC] Tensei Kizoku - Kantei Skill de Nariagaru - 07_Telegram_HEVC.mkv" -i "G:\\\xc0\xed\xe8\xec\xe5\\\xce\xed\xe3\xee\xe8\xed\xe3\xe8\\!_36_\xce\xf1\xe5\xed\xfc_2024\\DreamCast\\\xcf\xe5\xf0\xe5\xf0\xee\xe6\xe4\xe5\xed\xe8\xe5 \xe2 \xe0\xf0\xe8\xf1\xf2\xee\xea\xf0\xe0\xf2\xe0 \xf1\xee \xf1\xef\xee\xf1\xee\xe1\xed\xee\xf1\xf2\xfc\xfe \xe0\xed\xe0\xeb\xe8\xe7\xe0\\\xd2\xc2-1\\[DC] Tensei Kizoku - Kantei Skill de Nariagaru - 07_Telegram.mp4" -lavfi "[0:v]settb=AVTB,setpts=PTS-STARTPTS,format=pix_fmts=yuv420p10,fps=24000/1001,scale=1920:1080:flags=bicubic[main];[1:v]settb=AVTB,setpts=PTS-STARTPTS,format=pix_fmts=yuv420p,fps=24000/1001,scale=1920:1080:flags=bicubic[ref];[main][ref]ssim=eof_action=endall:stats_file='D\\:/Convert/FFMetrics/logs/ssim_logfile-6.txt'" -f null -
Input #0, matroska,webm, from 'G:\Аниме\Онгоинги\!_36_Осень_2024\DreamCast\Перерождение в аристократа со способностью анализа\ТВ-1\[DC] Tensei Kizoku - Kantei Skill de Nariagaru - 07_Telegram_HEVC.mkv':
  Metadata:
    COMPATIBLE_BRANDS: isomiso2avc1mp41
    MAJOR_BRAND     : isom
    MINOR_VERSION   : 512
    ENCODER         : Lavf61.7.100
  Duration: 00:23:47.76, start: -0.021000, bitrate: 1174 kb/s
  Stream #0:0: Video: hevc (Main 10), yuv420p10le(tv, bt709, progressive), 1920x1080 [SAR 1:1 DAR 16:9], 23.98 fps, 23.98 tbr, 1k tbn (default)
      Metadata:
        HANDLER_NAME    : VideoHandler
        VENDOR_ID       : [0][0][0][0]
        ENCODER         : Lavc61.19.100 libx265
        BPS             : 977877
        DURATION        : 00:23:46.591708333
        NUMBER_OF_FRAMES: 34204
        NUMBER_OF_BYTES : 174378896
        _STATISTICS_WRITING_APP: mkvpropedit v66.0.0 ('Josie') 64-bit
        _STATISTICS_WRITING_DATE_UTC: 2025-06-02 07:51:43
        _STATISTICS_TAGS: BPS DURATION NUMBER_OF_FRAMES NUMBER_OF_BYTES
  Stream #0:1: Audio: aac (LC), 48000 Hz, stereo, fltp (default)
      Metadata:
        HANDLER_NAME    : SoundHandler
        VENDOR_ID       : [0][0][0][0]
        ENCODER         : Lavc61.19.100 aac
        BPS             : 193551
        DURATION        : 00:23:47.754000000
        NUMBER_OF_FRAMES: 66927
        NUMBER_OF_BYTES : 34542919
        _STATISTICS_WRITING_APP: mkvpropedit v66.0.0 ('Josie') 64-bit
        _STATISTICS_WRITING_DATE_UTC: 2025-06-02 07:51:43
        _STATISTICS_TAGS: BPS DURATION NUMBER_OF_FRAMES NUMBER_OF_BYTES
Input #1, mov,mp4,m4a,3gp,3g2,mj2, from 'G:\Аниме\Онгоинги\!_36_Осень_2024\DreamCast\Перерождение в аристократа со способностью анализа\ТВ-1\[DC] Tensei Kizoku - Kantei Skill de Nariagaru - 07_Telegram.mp4':
  Metadata:
    major_brand     : isom
    minor_version   : 512
    compatible_brands: isomiso2avc1mp41
    encoder         : Lavf60.16.100
  Duration: 00:23:47.73, start: 0.000000, bitrate: 3726 kb/s
  Stream #1:0[0x1](und): Video: h264 (High) (avc1 / 0x31637661), yuv420p(tv, bt709, progressive), 1920x1080 [SAR 1:1 DAR 16:9], 3581 kb/s, 23.98 fps, 23.98 tbr, 24k tbn (default)
      Metadata:
        handler_name    : VideoHandler
        vendor_id       : [0][0][0][0]
        encoder         : Lavc60.31.102 h264_qsv
  Stream #1:1[0x2](und): Audio: aac (HE-AACv2) (mp4a / 0x6134706D), 48000 Hz, stereo, fltp, 144 kb/s (default)
      Metadata:
        handler_name    : SoundHandler
        vendor_id       : [0][0][0][0]
Stream mapping:
  Stream #0:0 (hevc) -> settb:default
  Stream #1:0 (h264) -> settb:default
  ssim:default -> Stream #0:0 (wrapped_avframe)
  Stream #0:1 -> #0:1 (aac (native) -> pcm_s16le (native))
Output #0, null, to 'pipe:':
  Metadata:
    COMPATIBLE_BRANDS: isomiso2avc1mp41
    MAJOR_BRAND     : isom
    MINOR_VERSION   : 512
    encoder         : Lavf61.7.100
  Stream #0:0: Video: wrapped_avframe, yuv420p10le(tv, bt709, progressive), 1920x1080 [SAR 1:1 DAR 16:9], q=2-31, 200 kb/s, 23.98 fps, 23.98 tbn
      Metadata:
        encoder         : Lavc61.19.100 wrapped_avframe
  Stream #0:1: Audio: pcm_s16le, 48000 Hz, stereo, s16, 1536 kb/s (default)
      Metadata:
        HANDLER_NAME    : SoundHandler
        VENDOR_ID       : [0][0][0][0]
        _STATISTICS_TAGS: BPS DURATION NUMBER_OF_FRAMES NUMBER_OF_BYTES
        BPS             : 193551
        DURATION        : 00:23:47.754000000
        NUMBER_OF_FRAMES: 66927
        NUMBER_OF_BYTES : 34542919
        _STATISTICS_WRITING_APP: mkvpropedit v66.0.0 ('Josie') 64-bit
        _STATISTICS_WRITING_DATE_UTC: 2025-06-02 07:51:43
        encoder         : Lavc61.19.100 pcm_s16le
frame=  174 fps=0.0 q=-0.0 size=N/A time=00:00:07.25 bitrate=N/A speed=13.9x    frame=  353 fps=343 q=-0.0 size=N/A time=00:00:14.72 bitrate=N/A speed=14.3x    frame=  556 fps=358 q=-0.0 size=N/A time=00:00:23.18 bitrate=N/A speed=14.9x    frame=  747 fps=362 q=-0.0 size=N/A time=00:00:31.15 bitrate=N/A speed=15.1x    frame=  944 fps=366 q=-0.0 size=N/A time=00:00:39.37 bitrate=N/A speed=15.2x    frame= 1123 fps=364 q=-0.0 size=N/A time=00:00:46.83 bitrate=N/A speed=15.2x    frame= 1327 fps=367 q=-0.0 size=N/A time=00:00:55.34 bitrate=N/A speed=15.3x    frame= 1534 fps=372 q=-0.0 size=N/A time=00:01:03.98 bitrate=N/A speed=15.5x    frame= 1777 fps=382 q=-0.0 size=N/A time=00:01:14.11 bitrate=N/A speed=15.9x    frame= 1955 fps=379 q=-0.0 size=N/A time=00:01:21.53 bitrate=N/A speed=15.8x    frame= 2168 fps=382 q=-0.0 size=N/A time=00:01:30.42 bitrate=N/A speed=15.9x    frame= 2318 fps=375 q=-0.0 size=N/A time=00:01:36.67 bitrate=N/A speed=15.6x    frame= 2478 fps=369 q=-0.0 size=N/A time=00:01:43.35 bitrate=N/A speed=15.4x    frame= 2674 fps=370 q=-0.0 size=N/A time=00:01:51.52 bitrate=N/A speed=15.4x    frame= 2859 fps=369 q=-0.0 size=N/A time=00:01:59.24 bitrate=N/A speed=15.4x    frame= 3036 fps=368 q=-0.0 size=N/A time=00:02:06.62 bitrate=N/A speed=15.4x    frame= 3242 fps=370 q=-0.0 size=N/A time=00:02:15.21 bitrate=N/A speed=15.4x    frame= 3458 fps=373 q=-0.0 size=N/A time=00:02:24.22 bitrate=N/A speed=15.5x    frame= 3678 fps=376 q=-0.0 size=N/A time=00:02:33.40 bitrate=N/A speed=15.7x    frame= 3897 fps=378 q=-0.0 size=N/A time=00:02:42.53 bitrate=N/A speed=15.8x    frame= 4149 fps=383 q=-0.0 size=N/A time=00:02:53.04 bitrate=N/A speed=  16x    frame= 4376 fps=385 q=-0.0 size=N/A time=00:03:02.51 bitrate=N/A speed=16.1x    frame= 4607 fps=388 q=-0.0 size=N/A time=00:03:12.15 bitrate=N/A speed=16.2x    frame= 4881 fps=394 q=-0.0 size=N/A time=00:03:23.57 bitrate=N/A speed=16.4x    frame= 5164 fps=400 q=-0.0 size=N/A time=00:03:35.38 bitrate=N/A speed=16.7x    frame= 5424 fps=404 q=-0.0 size=N/A time=00:03:46.22 bitrate=N/A speed=16.8x    frame= 5690 fps=408 q=-0.0 size=N/A time=00:03:57.32 bitrate=N/A speed=  17x    frame= 5932 fps=410 q=-0.0 size=N/A time=00:04:07.41 bitrate=N/A speed=17.1x    frame= 6128 fps=410 q=-0.0 size=N/A time=00:04:15.58 bitrate=N/A speed=17.1x    frame= 6339 fps=409 q=-0.0 size=N/A time=00:04:24.38 bitrate=N/A speed=17.1x    frame= 6590 fps=412 q=-0.0 size=N/A time=00:04:34.85 bitrate=N/A speed=17.2x    frame= 6837 fps=414 q=-0.0 size=N/A time=00:04:45.15 bitrate=N/A speed=17.3x    frame= 7091 fps=416 q=-0.0 size=N/A time=00:04:55.75 bitrate=N/A speed=17.4x    frame= 7349 fps=419 q=-0.0 size=N/A time=00:05:06.51 bitrate=N/A speed=17.5x    frame= 7601 fps=421 q=-0.0 size=N/A time=00:05:17.02 bitrate=N/A speed=17.6x    frame= 7855 fps=423 q=-0.0 size=N/A time=00:05:27.61 bitrate=N/A speed=17.6x    frame= 8088 fps=423 q=-0.0 size=N/A time=00:05:37.33 bitrate=N/A speed=17.7x    frame= 8340 fps=425 q=-0.0 size=N/A time=00:05:47.84 bitrate=N/A speed=17.7x    frame= 8605 fps=428 q=-0.0 size=N/A time=00:05:58.90 bitrate=N/A speed=17.8x    frame= 8863 fps=429 q=-0.0 size=N/A time=00:06:09.66 bitrate=N/A speed=17.9x    frame= 9081 fps=429 q=-0.0 size=N/A time=00:06:18.75 bitrate=N/A speed=17.9x    frame= 9316 fps=430 q=-0.0 size=N/A time=00:06:28.55 bitrate=N/A speed=17.9x    frame= 9555 fps=431 q=-0.0 size=N/A time=00:06:38.52 bitrate=N/A speed=  18x    frame= 9820 fps=433 q=-0.0 size=N/A time=00:06:49.57 bitrate=N/A speed=  18x    frame=10074 fps=434 q=-0.0 size=N/A time=00:07:00.16 bitrate=N/A speed=18.1x    frame=10335 fps=435 q=-0.0 size=N/A time=00:07:11.05 bitrate=N/A speed=18.2x    frame=10604 fps=437 q=-0.0 size=N/A time=00:07:22.27 bitrate=N/A speed=18.2x    frame=10883 fps=439 q=-0.0 size=N/A time=00:07:33.91 bitrate=N/A speed=18.3x    frame=11151 fps=441 q=-0.0 size=N/A time=00:07:45.08 bitrate=N/A speed=18.4x    frame=11431 fps=443 q=-0.0 size=N/A time=00:07:56.76 bitrate=N/A speed=18.5x    frame=11691 fps=444 q=-0.0 size=N/A time=00:08:07.61 bitrate=N/A speed=18.5x    frame=11939 fps=445 q=-0.0 size=N/A time=00:08:17.95 bitrate=N/A speed=18.6x    frame=12210 fps=447 q=-0.0 size=N/A time=00:08:29.25 bitrate=N/A speed=18.6x    frame=12491 fps=448 q=-0.0 size=N/A time=00:08:40.97 bitrate=N/A speed=18.7x    frame=12752 fps=449 q=-0.0 size=N/A time=00:08:51.86 bitrate=N/A speed=18.7x    frame=13016 fps=451 q=-0.0 size=N/A time=00:09:02.87 bitrate=N/A speed=18.8x    frame=13281 fps=452 q=-0.0 size=N/A time=00:09:13.92 bitrate=N/A speed=18.8x    frame=13548 fps=453 q=-0.0 size=N/A time=00:09:25.06 bitrate=N/A speed=18.9x    frame=13806 fps=454 q=-0.0 size=N/A time=00:09:35.82 bitrate=N/A speed=18.9x    frame=14048 fps=454 q=-0.0 size=N/A time=00:09:45.91 bitrate=N/A speed=18.9x    frame=14322 fps=455 q=-0.0 size=N/A time=00:09:57.34 bitrate=N/A speed=  19x    frame=14528 fps=454 q=-0.0 size=N/A time=00:10:05.93 bitrate=N/A speed=18.9x    frame=14771 fps=455 q=-0.0 size=N/A time=00:10:16.07 bitrate=N/A speed=  19x    frame=15043 fps=456 q=-0.0 size=N/A time=00:10:27.41 bitrate=N/A speed=  19x    frame=15303 fps=456 q=-0.0 size=N/A time=00:10:38.26 bitrate=N/A speed=  19x    frame=15558 fps=457 q=-0.0 size=N/A time=00:10:48.89 bitrate=N/A speed=19.1x    frame=15828 fps=458 q=-0.0 size=N/A time=00:11:00.15 bitrate=N/A speed=19.1x    frame=16093 fps=459 q=-0.0 size=N/A time=00:11:11.21 bitrate=N/A speed=19.1x    frame=16351 fps=459 q=-0.0 size=N/A time=00:11:21.97 bitrate=N/A speed=19.2x    frame=16615 fps=460 q=-0.0 size=N/A time=00:11:32.98 bitrate=N/A speed=19.2x    frame=16854 fps=460 q=-0.0 size=N/A time=00:11:42.95 bitrate=N/A speed=19.2x    frame=17090 fps=460 q=-0.0 size=N/A time=00:11:52.79 bitrate=N/A speed=19.2x    frame=17329 fps=460 q=-0.0 size=N/A time=00:12:02.76 bitrate=N/A speed=19.2x    frame=17606 fps=461 q=-0.0 size=N/A time=00:12:14.31 bitrate=N/A speed=19.2x    frame=17862 fps=462 q=-0.0 size=N/A time=00:12:24.99 bitrate=N/A speed=19.3x    frame=18142 fps=463 q=-0.0 size=N/A time=00:12:36.67 bitrate=N/A speed=19.3x    frame=18391 fps=463 q=-0.0 size=N/A time=00:12:47.05 bitrate=N/A speed=19.3x    frame=18638 fps=463 q=-0.0 size=N/A time=00:12:57.35 bitrate=N/A speed=19.3x    frame=18878 fps=463 q=-0.0 size=N/A time=00:13:07.36 bitrate=N/A speed=19.3x    frame=19129 fps=464 q=-0.0 size=N/A time=00:13:17.83 bitrate=N/A speed=19.3x    frame=19384 fps=464 q=-0.0 size=N/A time=00:13:28.47 bitrate=N/A speed=19.4x    frame=19618 fps=464 q=-0.0 size=N/A time=00:13:38.23 bitrate=N/A speed=19.3x    frame=19857 fps=464 q=-0.0 size=N/A time=00:13:48.20 bitrate=N/A speed=19.3x    frame=20104 fps=464 q=-0.0 size=N/A time=00:13:58.50 bitrate=N/A speed=19.4x    frame=20356 fps=464 q=-0.0 size=N/A time=00:14:09.01 bitrate=N/A speed=19.4x    frame=20616 fps=465 q=-0.0 size=N/A time=00:14:19.85 bitrate=N/A speed=19.4x    frame=20875 fps=465 q=-0.0 size=N/A time=00:14:30.66 bitrate=N/A speed=19.4x    frame=21082 fps=465 q=-0.0 size=N/A time=00:14:39.29 bitrate=N/A speed=19.4x    frame=21290 fps=464 q=-0.0 size=N/A time=00:14:47.97 bitrate=N/A speed=19.3x    frame=21471 fps=463 q=-0.0 size=N/A time=00:14:55.51 bitrate=N/A speed=19.3x    frame=21668 fps=462 q=-0.0 size=N/A time=00:15:03.73 bitrate=N/A speed=19.3x    frame=21875 fps=461 q=-0.0 size=N/A time=00:15:12.36 bitrate=N/A speed=19.2x    frame=22084 fps=460 q=-0.0 size=N/A time=00:15:21.08 bitrate=N/A speed=19.2x    frame=22304 fps=460 q=-0.0 size=N/A time=00:15:30.26 bitrate=N/A speed=19.2x    frame=22543 fps=460 q=-0.0 size=N/A time=00:15:40.23 bitrate=N/A speed=19.2x    frame=22832 fps=461 q=-0.0 size=N/A time=00:15:52.28 bitrate=N/A speed=19.2x    frame=23079 fps=461 q=-0.0 size=N/A time=00:16:02.58 bitrate=N/A speed=19.2x    frame=23354 fps=462 q=-0.0 size=N/A time=00:16:14.05 bitrate=N/A speed=19.3x    frame=23639 fps=463 q=-0.0 size=N/A time=00:16:25.94 bitrate=N/A speed=19.3x    frame=23897 fps=463 q=-0.0 size=N/A time=00:16:36.70 bitrate=N/A speed=19.3x    frame=24167 fps=464 q=-0.0 size=N/A time=00:16:47.96 bitrate=N/A speed=19.3x    frame=24434 fps=464 q=-0.0 size=N/A time=00:16:59.10 bitrate=N/A speed=19.4x    frame=24702 fps=465 q=-0.0 size=N/A time=00:17:10.27 bitrate=N/A speed=19.4x    frame=24942 fps=465 q=-0.0 size=N/A time=00:17:20.28 bitrate=N/A speed=19.4x    frame=25178 fps=465 q=-0.0 size=N/A time=00:17:30.13 bitrate=N/A speed=19.4x    frame=25436 fps=465 q=-0.0 size=N/A time=00:17:40.89 bitrate=N/A speed=19.4x    frame=25667 fps=465 q=-0.0 size=N/A time=00:17:50.52 bitrate=N/A speed=19.4x    frame=25911 fps=465 q=-0.0 size=N/A time=00:18:00.70 bitrate=N/A speed=19.4x    frame=26112 fps=465 q=-0.0 size=N/A time=00:18:09.08 bitrate=N/A speed=19.4x    frame=26317 fps=464 q=-0.0 size=N/A time=00:18:17.63 bitrate=N/A speed=19.3x    frame=26532 fps=463 q=-0.0 size=N/A time=00:18:26.60 bitrate=N/A speed=19.3x    frame=26783 fps=464 q=-0.0 size=N/A time=00:18:37.07 bitrate=N/A speed=19.3x    frame=27028 fps=464 q=-0.0 size=N/A time=00:18:47.29 bitrate=N/A speed=19.3x    frame=27270 fps=464 q=-0.0 size=N/A time=00:18:57.38 bitrate=N/A speed=19.3x    frame=27522 fps=464 q=-0.0 size=N/A time=00:19:07.89 bitrate=N/A speed=19.4x    frame=27765 fps=464 q=-0.0 size=N/A time=00:19:18.03 bitrate=N/A speed=19.4x    frame=28005 fps=464 q=-0.0 size=N/A time=00:19:28.04 bitrate=N/A speed=19.4x    frame=28222 fps=464 q=-0.0 size=N/A time=00:19:37.09 bitrate=N/A speed=19.3x    frame=28462 fps=464 q=-0.0 size=N/A time=00:19:47.10 bitrate=N/A speed=19.3x    frame=28698 fps=464 q=-0.0 size=N/A time=00:19:56.94 bitrate=N/A speed=19.3x    frame=28946 fps=464 q=-0.0 size=N/A time=00:20:07.28 bitrate=N/A speed=19.3x    frame=29168 fps=463 q=-0.0 size=N/A time=00:20:16.54 bitrate=N/A speed=19.3x    frame=29420 fps=464 q=-0.0 size=N/A time=00:20:27.05 bitrate=N/A speed=19.3x    frame=29673 fps=464 q=-0.0 size=N/A time=00:20:37.61 bitrate=N/A speed=19.3x    frame=29922 fps=464 q=-0.0 size=N/A time=00:20:47.99 bitrate=N/A speed=19.4x    frame=30127 fps=463 q=-0.0 size=N/A time=00:20:56.54 bitrate=N/A speed=19.3x    frame=30364 fps=463 q=-0.0 size=N/A time=00:21:06.43 bitrate=N/A speed=19.3x    frame=30593 fps=463 q=-0.0 size=N/A time=00:21:15.98 bitrate=N/A speed=19.3x    frame=30814 fps=463 q=-0.0 size=N/A time=00:21:25.20 bitrate=N/A speed=19.3x    frame=31054 fps=463 q=-0.0 size=N/A time=00:21:35.21 bitrate=N/A speed=19.3x    frame=31293 fps=463 q=-0.0 size=N/A time=00:21:45.17 bitrate=N/A speed=19.3x    frame=31539 fps=463 q=-0.0 size=N/A time=00:21:55.43 bitrate=N/A speed=19.3x    frame=31758 fps=463 q=-0.0 size=N/A time=00:22:04.57 bitrate=N/A speed=19.3x    frame=31934 fps=462 q=-0.0 size=N/A time=00:22:11.91 bitrate=N/A speed=19.3x    frame=32137 fps=461 q=-0.0 size=N/A time=00:22:20.38 bitrate=N/A speed=19.2x    frame=32326 fps=461 q=-0.0 size=N/A time=00:22:28.26 bitrate=N/A speed=19.2x    frame=32518 fps=460 q=-0.0 size=N/A time=00:22:36.27 bitrate=N/A speed=19.2x    frame=32703 fps=459 q=-0.0 size=N/A time=00:22:43.98 bitrate=N/A speed=19.2x    frame=32894 fps=459 q=-0.0 size=N/A time=00:22:51.95 bitrate=N/A speed=19.1x    frame=33105 fps=458 q=-0.0 size=N/A time=00:23:00.75 bitrate=N/A speed=19.1x    frame=33280 fps=457 q=-0.0 size=N/A time=00:23:08.05 bitrate=N/A speed=19.1x    frame=33502 fps=457 q=-0.0 size=N/A time=00:23:17.31 bitrate=N/A speed=19.1x    frame=33699 fps=457 q=-0.0 size=N/A time=00:23:25.52 bitrate=N/A speed=  19x    frame=33888 fps=456 q=-0.0 size=N/A time=00:23:33.41 bitrate=N/A speed=  19x    frame=34112 fps=456 q=-0.0 size=N/A time=00:23:42.75 bitrate=N/A speed=  19x    [Parsed_ssim_10 @ 0000027568de9c40] SSIM Y:0.991684 (20.800843) U:0.994043 (22.249733) V:0.994271 (22.418904) All:0.992508 (21.254168)
[out#0/null @ 00000275689250c0] video:14697KiB audio:267708KiB subtitle:0KiB other streams:0KiB global headers:0KiB muxing overhead: unknown
frame=34204 fps=456 q=-0.0 Lsize=N/A time=00:23:46.59 bitrate=N/A speed=  19x    
